<svg width="399" height="399" viewBox="0 0 399 399" fill="none" xmlns="http://www.w3.org/2000/svg">
<g filter="url(#filter0_d_3_80)">
<path d="M199.125 0C160.533 0 122.808 11.4439 90.7194 32.8845C58.6313 54.3251 33.6216 84.7995 18.8531 120.454C4.08454 156.108 0.220419 195.341 7.74936 233.192C15.2783 271.043 33.8621 305.81 61.1509 333.099C88.4396 360.388 123.208 378.972 161.058 386.501C198.909 394.03 238.142 390.166 273.796 375.397C309.451 360.628 339.925 335.619 361.366 303.531C382.806 271.442 394.25 233.717 394.25 195.125C394.25 143.375 373.692 93.7438 337.099 57.1508C300.506 20.5578 250.875 0 199.125 0ZM199.125 362.375C166.046 362.375 133.71 352.566 106.206 334.188C78.7018 315.811 57.265 289.69 44.6062 259.129C31.9475 228.568 28.6354 194.939 35.0887 162.496C41.5421 130.053 57.4711 100.252 80.8615 76.8614C104.252 53.4711 134.053 37.542 166.496 31.0887C198.94 24.6353 232.568 27.9474 263.129 40.6061C293.69 53.2649 319.811 74.7018 338.188 102.206C356.566 129.71 366.375 162.046 366.375 195.125C366.375 239.482 348.754 282.023 317.389 313.389C286.023 344.754 243.483 362.375 199.125 362.375Z" fill="white"/>
<path d="M261.844 125.438C254.952 125.438 248.216 127.481 242.486 131.31C236.756 135.138 232.29 140.58 229.652 146.947C227.015 153.314 226.325 160.32 227.67 167.079C229.014 173.838 232.333 180.047 237.206 184.92C242.079 189.792 248.287 193.111 255.046 194.455C261.805 195.8 268.811 195.11 275.178 192.473C281.545 189.835 286.987 185.369 290.815 179.639C294.644 173.909 296.688 167.173 296.688 160.281C296.688 151.04 293.017 142.177 286.482 135.643C279.948 129.109 271.085 125.438 261.844 125.438ZM87.6251 153.312H171.25V181.188H87.6251V153.312ZM199.125 306.625C218.364 306.592 237.267 301.582 253.997 292.082C270.726 282.582 284.713 268.914 294.597 252.408L270.764 238.471C263.326 250.822 252.821 261.041 240.269 268.134C227.716 275.228 213.543 278.956 199.125 278.956C184.707 278.956 170.534 275.228 157.982 268.134C145.429 261.041 134.924 250.822 127.486 238.471L103.653 252.408C113.537 268.914 127.524 282.582 144.253 292.082C160.983 301.582 179.886 306.592 199.125 306.625Z" fill="white"/>
</g>
<defs>
<filter id="filter0_d_3_80" x="0" y="0" width="398.25" height="398.25" filterUnits="userSpaceOnUse" color-interpolation-filters="sRGB">
<feFlood flood-opacity="0" result="BackgroundImageFix"/>
<feColorMatrix in="SourceAlpha" type="matrix" values="0 0 0 0 0 0 0 0 0 0 0 0 0 0 0 0 0 0 127 0" result="hardAlpha"/>
<feOffset dy="4"/>
<feGaussianBlur stdDeviation="2"/>
<feComposite in2="hardAlpha" operator="out"/>
<feColorMatrix type="matrix" values="0 0 0 0 0 0 0 0 0 0 0 0 0 0 0 0 0 0 0.25 0"/>
<feBlend mode="normal" in2="BackgroundImageFix" result="effect1_dropShadow_3_80"/>
<feBlend mode="normal" in="SourceGraphic" in2="effect1_dropShadow_3_80" result="shape"/>
</filter>
</defs>
</svg>
